<svg width="240" height="240" viewBox="0 0 24 24" fill="none" xmlns="http://www.w3.org/2000/svg">
  <path d="M11.5 7.5C11.5 7.5 9 3 6.5 3C4 3 2 5 2 7.5C2 10 4 10.5 6.5 10.5H11.5V7.5Z" fill="#C5D9A5"/>
  <path d="M12.5 7.5C12.5 7.5 15 3 17.5 3C20 3 22 5 22 7.5C22 10 20 10.5 17.5 10.5H12.5V7.5Z" fill="#C5D9A5"/>
  
  <rect x="11.25" y="7" width="1.5" height="3.5" rx="0.5" fill="#DCE9C8"/>

  <rect x="3" y="10.5" width="18" height="3" rx="1" fill="#C5D9A5"/>
  
  <rect x="4" y="13.5" width="16" height="8" rx="0.5" fill="#78A572"/>
  
  <path d="M4 21.5L20 13.5H4V21.5Z" fill="#8BB880"/>

  <rect x="11.25" y="13.5" width="1.5" height="8" fill="#C5D9A5" fill-opacity="0.7"/>
</svg>
